# xmcd CD database file
#
# Track frame offsets:
#	150
#	20348
#	34221
#	50208
#	64122
#	86850
#	97788
#	126849
#	140004
#	156384
#	177539
#	189441
#	218736
#	235464
#
# Disc length: 3352 seconds
#
# Revision: 0
# Processed by: cddbd v1.5.1PL2 Copyright (c) Steve Scherf et al.
# Submitted via: CDex 1.51
#
DISCID=ce0d160e
DTITLE=Chicken Shack - Forty Blue Fingers, Freshly Packed And Ready To Serve
DYEAR=1969
DGENRE=Blues
TTITLE0=The Letter
TTITLE1=Lonesome Whistle Blues
TTITLE2=When The Train Comes Back
TTITLE3=San Ho Zay
TTITLE4=King Of The World
TTITLE5=See See Baby
TTITLE6=First Time I Met The Blues
TTITLE7=Webbed Feet
TTITLE8=You Ain't No Good
TTITLE9=What You Did Last Night
TTITLE10=It`s OK With Me Baby
TTITLE11=When My Left Eye Jumps
TTITLE12=Hey Baby
TTITLE13=When The Train Comes Back
EXTD=YEAR: 1969
EXTT0=
EXTT1=
EXTT2=
EXTT3=
EXTT4=
EXTT5=
EXTT6=
EXTT7=
EXTT8=
EXTT9=
EXTT10=
EXTT11=
EXTT12=
EXTT13=
PLAYORDER=
